<?xml version="1.0" ?><svg id="Слой_1" style="enable-background:new 0 0 128 128;" version="1.1" viewBox="0 0 128 128" xml:space="preserve" xmlns="http://www.w3.org/2000/svg" xmlns:xlink="http://www.w3.org/1999/xlink"><style type="text/css">
	.st0{fill:#5385CD;}
</style><rect class="st0" height="4" id="XMLID_45_" width="56" x="50" y="33"/><rect class="st0" height="4" id="XMLID_44_" width="56" x="50" y="62"/><rect class="st0" height="4" id="XMLID_43_" width="56" x="50" y="91"/><g id="XMLID_39_"><path class="st0" d="M34,29c2.2,0,4,1.8,4,4v4c0,2.2-1.8,4-4,4h-4c-2.2,0-4-1.8-4-4v-4c0-2.2,1.8-4,4-4H34 M34,25   h-4c-4.4,0-8,3.6-8,8v4c0,4.4,3.6,8,8,8h4c4.4,0,8-3.6,8-8v-4C42,28.6,38.4,25,34,25L34,25z" id="XMLID_40_"/></g><g id="XMLID_35_"><path class="st0" d="M34,58c2.2,0,4,1.8,4,4v4c0,2.2-1.8,4-4,4h-4c-2.2,0-4-1.8-4-4v-4c0-2.2,1.8-4,4-4H34 M34,54   h-4c-4.4,0-8,3.6-8,8v4c0,4.4,3.6,8,8,8h4c4.4,0,8-3.6,8-8v-4C42,57.6,38.4,54,34,54L34,54z" id="XMLID_36_"/></g><g id="XMLID_31_"><path class="st0" d="M34,87c2.2,0,4,1.8,4,4v4c0,2.2-1.8,4-4,4h-4c-2.2,0-4-1.8-4-4v-4c0-2.2,1.8-4,4-4H34 M34,83   h-4c-4.4,0-8,3.6-8,8v4c0,4.4,3.6,8,8,8h4c4.4,0,8-3.6,8-8v-4C42,86.6,38.4,83,34,83L34,83z" id="XMLID_32_"/></g></svg>