<?xml version="1.0" ?><!DOCTYPE svg  PUBLIC '-//W3C//DTD SVG 1.0//EN'  'http://www.w3.org/TR/2001/REC-SVG-20010904/DTD/svg10.dtd'><svg height="54px" style="shape-rendering:geometricPrecision; text-rendering:geometricPrecision; image-rendering:optimizeQuality; fill-rule:evenodd; clip-rule:evenodd" version="1.0" viewBox="0 0 16788 14164" width="64px" xml:space="preserve" xmlns="http://www.w3.org/2000/svg" xmlns:xlink="http://www.w3.org/1999/xlink"><defs><style type="text/css">
   <![CDATA[
    .fil0 {fill:#27afb7;fill-rule:nonzero}
   ]]>
  </style></defs><g id="Layer_x0020_1"><path class="fil0" d="M262 0l7 0 16256 0c145,0 262,118 262,262l0 7 0 2085 0 7 0 7 0 11535c0,145 -118,262 -262,262l-7 0 -5758 0 -7 0 -7 0 -1042 0 -7 0 -2609 0 -2112 0 -4714 0c-145,0 -262,-118 -262,-262l0 -7 0 -11528 0 -7 0 -7 0 -2091c0,-145 118,-262 262,-262zm10749 3446c320,148 591,385 780,677 190,292 301,641 301,1014 0,401 -128,774 -345,1079 -186,261 -438,472 -732,609l0 6816 5247 0 0 -11017 -15738 0 0 11017 4196 0 0 -2623c0,-289 118,-552 308,-741 190,-190 452,-308 741,-308l0 -3410c-98,0 -183,-55 -228,-135l-491 -774c-45,-70 -51,-154 -26,-227l502 -1819c32,-116 137,-192 252,-192l0 -1 507 0c129,0 237,94 258,217l500 1812c20,74 7,150 -32,211l0 0 -507 787c-48,75 -128,117 -211,120l0 3411c287,0 550,118 740,308l1 1 1 -1c190,190 308,452 308,741l0 2623 2098 0 0 -6815c-294,-137 -546,-349 -732,-610 -217,-305 -345,-678 -345,-1079 0,-373 111,-722 301,-1014 195,-300 476,-542 806,-689 132,-59 287,0 345,132 15,35 23,71 23,107l1 0 0 1502 776 0 0 -1502c0,-145 118,-262 262,-262 48,0 93,13 132,36zm342 962c-60,-93 -131,-177 -211,-252l0 1275 0 7c0,145 -118,262 -262,262l-1294 0 -7 0c-145,0 -262,-118 -262,-262l0 -1281c-81,75 -152,160 -212,252 -135,208 -214,459 -214,729 0,290 91,558 246,776 156,219 376,390 633,483 114,29 198,132 198,254l0 6990 524 0 0 -6991 1 0c0,-108 68,-210 176,-247 265,-92 493,-265 653,-490 155,-218 246,-486 246,-776 0,-270 -79,-520 -214,-729zm-5266 -473l-109 0 -422 1531 360 568 111 0 7 0 7 0 104 0 366 -568 -422 -1530zm208 6558l-255 0 -7 0 -7 0 -256 0c-144,0 -275,59 -370,154 -95,95 -154,226 -154,370l0 2623 1573 0 0 -2623c0,-144 -59,-275 -154,-370l1 -1c-95,-94 -227,-154 -371,-154zm5509 262c-145,0 -262,-118 -262,-262 0,-145 118,-262 262,-262l2602 0c145,0 262,118 262,262 0,145 -118,262 -262,262l-2602 0zm1049 -1311c-145,0 -262,-118 -262,-262 0,-145 118,-262 262,-262l2602 0c145,0 262,118 262,262 0,145 -118,262 -262,262l-2602 0zm-11541 -2361c-145,0 -262,-118 -262,-262 0,-145 118,-262 262,-262l2602 0c145,0 262,118 262,262 0,145 -118,262 -262,262l-2602 0zm1049 1311c-145,0 -262,-118 -262,-262 0,-145 118,-262 262,-262l2602 0c145,0 262,118 262,262 0,145 -118,262 -262,262l-2602 0zm1574 -7344l524 0 0 525 -524 0 0 -525zm-1311 0l524 0 0 525 -524 0 0 -525zm-1311 0l524 0 0 525 -524 0 0 -525zm-787 1049l15738 0 0 -1573 -15738 0 0 1573z"/></g></svg>